<svg width="40" height="40" viewBox="0 0 40 40" fill="none" xmlns="http://www.w3.org/2000/svg">
<g clip-path="url(#clip0_146_64)">
<path fill-rule="evenodd" clip-rule="evenodd" d="M10.4885 10.4883C10.801 10.1759 11.2249 10.0003 11.6668 10.0003C12.1087 10.0003 12.5326 10.1759 12.8451 10.4883L20.0001 17.6433L27.1551 10.4883C27.3089 10.3291 27.4928 10.2022 27.6961 10.1148C27.8995 10.0275 28.1182 9.98148 28.3395 9.97956C28.5608 9.97763 28.7802 10.0198 28.9851 10.1036C29.1899 10.1874 29.376 10.3112 29.5325 10.4676C29.6889 10.6241 29.8127 10.8102 29.8965 11.015C29.9803 11.2199 30.0225 11.4393 30.0206 11.6606C30.0186 11.8819 29.9726 12.1006 29.8853 12.304C29.798 12.5073 29.671 12.6912 29.5118 12.845L21.1785 21.1783C20.8659 21.4908 20.4421 21.6663 20.0001 21.6663C19.5582 21.6663 19.1343 21.4908 18.8218 21.1783L10.4885 12.845C10.176 12.5324 10.0005 12.1086 10.0005 11.6666C10.0005 11.2247 10.176 10.8009 10.4885 10.4883ZM10.4885 20.4883C10.801 20.1759 11.2249 20.0003 11.6668 20.0003C12.1087 20.0003 12.5326 20.1759 12.8451 20.4883L20.0001 27.6433L27.1551 20.4883C27.4695 20.1847 27.8905 20.0167 28.3275 20.0205C28.7645 20.0243 29.1825 20.1996 29.4915 20.5086C29.8005 20.8176 29.9758 21.2356 29.9796 21.6726C29.9834 22.1096 29.8154 22.5306 29.5118 22.845L21.1785 31.1783C20.8659 31.4908 20.4421 31.6663 20.0001 31.6663C19.5582 31.6663 19.1343 31.4908 18.8218 31.1783L10.4885 22.845C10.176 22.5324 10.0005 22.1086 10.0005 21.6666C10.0005 21.2247 10.176 20.8009 10.4885 20.4883Z" fill="white"/>
</g>
<defs>
<clipPath id="clip0_146_64">
<rect width="40" height="40" fill="white"/>
</clipPath>
</defs>
</svg>
