<svg width="100" height="100" viewBox="0 0 100 100" fill="none" xmlns="http://www.w3.org/2000/svg">
<g clip-path="url(#clip0_169_220)">
<path d="M47.4125 0.636936C48.1295 0.218525 48.9448 -0.00195313 49.775 -0.00195312C50.6052 -0.00195313 51.4205 0.218525 52.1375 0.636936L90.975 23.2932C91.6839 23.7054 92.2722 24.2963 92.6813 25.007C93.0904 25.7176 93.3059 26.5232 93.3063 27.3432V72.6557C93.3059 73.4757 93.0904 74.2812 92.6813 74.9919C92.2722 75.7026 91.6839 76.2935 90.975 76.7057L52.1375 99.3619C51.4205 99.7803 50.6052 100.001 49.775 100.001C48.9448 100.001 48.1295 99.7803 47.4125 99.3619L8.575 76.7057C7.86729 76.2927 7.2802 75.7014 6.87225 74.9908C6.4643 74.2802 6.24976 73.4751 6.25 72.6557V27.3432C6.24976 26.5238 6.4643 25.7187 6.87225 25.008C7.2802 24.2974 7.86729 23.7062 8.575 23.2932L47.4125 0.636936ZM49.775 89.8869L83.9313 69.9619V30.0369L49.775 10.1119L15.625 30.0369V69.9619L49.775 89.8869Z" fill="#1A6AE3"/>
<path d="M49.9995 34.3751C47.4143 34.3756 44.8696 35.0175 42.5935 36.2433C40.3174 37.4692 38.381 39.2407 36.9579 41.3989C35.5348 43.5572 34.6695 46.0349 34.4395 48.6099C34.2094 51.1848 34.6219 53.7767 35.64 56.153C36.658 58.5293 38.2498 60.616 40.2726 62.2258C42.2954 63.8357 44.686 64.9185 47.2302 65.3772C49.7744 65.8358 52.3927 65.6561 54.8503 64.854C57.308 64.0519 59.5282 62.6525 61.312 60.7813C61.7368 60.3356 62.2451 59.978 62.8081 59.7288C63.3711 59.4796 63.9776 59.3437 64.5931 59.3289C65.2085 59.3141 65.8209 59.4207 66.3952 59.6425C66.9695 59.8644 67.4945 60.1972 67.9401 60.6219C68.3858 61.0467 68.7435 61.555 68.9927 62.118C69.2419 62.681 69.3778 63.2875 69.3926 63.903C69.4074 64.5185 69.3008 65.1308 69.0789 65.7051C68.8571 66.2794 68.5243 66.8044 68.0995 67.2501C64.6555 70.8634 60.2086 73.363 55.3315 74.427C50.4545 75.491 45.3706 75.0706 40.7345 73.2199C36.0985 71.3693 32.1226 68.1732 29.3189 64.0432C26.5152 59.9132 25.012 55.0384 25.003 50.0467C24.9939 45.0549 26.4795 40.1748 29.2682 36.0346C32.057 31.8945 36.0213 28.6841 40.6506 26.8167C45.2799 24.9493 50.3623 24.5105 55.2432 25.5568C60.124 26.6032 64.5799 29.0867 68.037 32.6876C68.899 33.5843 69.3694 34.7868 69.3448 36.0304C69.3202 37.274 68.8025 38.4569 67.9058 39.3188C67.009 40.1808 65.8066 40.6512 64.563 40.6266C63.3194 40.6019 62.1365 40.0843 61.2745 39.1876C59.8189 37.6638 58.069 36.4516 56.1308 35.6243C54.1927 34.7971 52.1068 34.3721 49.9995 34.3751Z" fill="#1A6AE3"/>
</g>
<defs>
<clipPath id="clip0_169_220">
<rect width="100" height="100" fill="white"/>
</clipPath>
</defs>
</svg>
