<svg width="150" height="150" viewBox="0 0 150 150" fill="none" xmlns="http://www.w3.org/2000/svg">
<path d="M21.9922 96.8967C19.5981 95.0147 17.0422 93.21 15.2973 90.6658C11.6235 86.1799 8.79573 80.9885 6.86213 75.5323C5.6926 71.9838 5.29299 68.1787 3.78596 64.7686C2.21096 62.2912 4.05666 59.583 6.77073 58.7955C7.97776 58.5635 10.1024 57.4233 7.5383 58.2377C5.23909 59.9252 5.0176 56.7073 7.37541 56.5022C8.98323 56.2901 9.5762 54.9729 9.02541 53.7881C7.29807 52.6608 13.2137 51.4244 10.2371 49.7428C7.13752 46.3971 14.5731 45.7537 12.7391 49.553C12.2996 52.4733 17.9364 49.0162 16.6274 52.3901C17.9574 54.0108 21.6055 52.7592 21.5141 55.0315C23.45 55.1651 24.1156 56.7928 25.9321 56.9182C27.8164 57.7702 31.2301 58.4393 31.8711 60.5627C30.0031 62.0405 25.6766 57.5065 25.468 61.601C26.0328 67.6514 25.8875 73.8823 28.1024 79.6432C29.1489 83.133 31.6871 85.8776 33.9793 88.5963C36.1731 91.2576 39.1438 93.1303 42.1719 94.7065C44.8274 95.9592 47.6903 96.7889 50.586 97.3116C51.759 96.4139 53.8332 93.0764 55.6637 94.4838C55.7516 96.0659 52.0297 97.7909 55.4891 97.6174C57.5211 97.0022 58.9297 99.1877 60.6032 97.2155C62.1442 99.0412 67.0098 96.0506 65.9129 99.7819C64.4281 100.738 62.266 100.158 60.7813 101.478C58.3321 100.253 56.3832 102.571 53.6703 102.28C50.6598 102.817 47.5953 103.036 44.5426 103.04C39.534 102.645 34.4199 102.477 29.6563 100.735C26.9692 99.9541 24.3512 98.4237 21.9922 96.8967ZM26.2203 98.7307C28.8406 99.8627 31.4035 101.057 34.2758 101.418C38.8332 102.051 43.5395 103.027 48.1133 102.139C46.0426 101.203 43.9028 102.499 41.8403 101.469C39.3676 102.003 36.7133 101.335 34.1985 101.005C31.3403 99.7327 28.2547 98.8561 25.577 97.2026C22.2313 95.9803 27.3067 98.7705 28.2114 98.9967C30.302 100.184 25.9121 98.3873 25.2922 97.8952C23.5403 96.912 23.3164 97.117 25.1188 98.1155C25.4821 98.3252 25.8406 98.5502 26.2203 98.7307ZM21.2328 95.2057C23.7735 96.1479 21.2223 93.4198 20.0598 93.578C19.5442 92.6826 18.0887 92.1178 19.1153 91.6385C17.2707 92.2795 17.1817 89.2022 16.3156 89.6416C14.3621 89.0252 15.5563 86.8409 13.2289 85.5002C13.0168 84.0869 10.9192 82.8623 10.25 80.7307C9.95471 79.6385 7.87815 76.5061 9.15315 79.4205C10.2383 82.2284 12.1473 84.6342 13.7387 87.0354C14.9715 89.3205 16.4293 91.7123 18.6758 93.1385C19.4328 93.8651 20.1641 94.9784 21.2328 95.2057ZM13.918 87.1725C14.3821 88.0022 14.0047 86.7893 13.918 87.1725ZM24.2762 96.3342C24.8375 96.0799 23.4664 96.0155 24.2762 96.3342ZM25.6543 96.8358C25.5125 96.1409 25.0239 97.2248 25.6543 96.8358ZM27.3805 97.5541C28.2008 96.7725 26.1137 97.0608 27.3805 97.5541ZM30.3383 99.203C30.8375 98.467 28.7399 98.9264 30.3383 99.203ZM24.6582 95.2444C25.9332 94.4182 23.0094 95.2338 24.6582 95.2444ZM25.952 95.8901C25.9156 95.4541 25.4914 96.0846 25.952 95.8901ZM32.4219 99.9284C33.4625 100.586 38.4969 101.366 35.3446 100.197C34.816 100.309 29.4992 98.6944 32.4219 99.9284ZM22.1528 91.928C22.0508 91.492 20.5356 91.4452 22.1528 91.928ZM25.1621 93.6846C25.9473 93.1385 23.5356 93.2627 25.1621 93.6846ZM27.6969 95.2385C28.8219 94.8131 25.8723 94.8119 27.6969 95.2385ZM20.9246 90.5932C22.1457 91.5307 25.8489 90.7151 22.7938 90.0354C21.4039 89.2948 18.2727 88.7885 20.4078 90.4819L20.9246 90.5932ZM29.4125 95.7741C29.9223 94.908 27.2797 95.2795 29.4125 95.7741ZM26.8332 93.7244C29.8168 94.5694 24.3242 91.8366 26.0973 93.4139L26.4899 93.5909L26.8332 93.7244ZM32.0059 96.7127C34.8313 96.7409 29.4524 96.3237 32.0059 96.7127ZM19.8371 88.9584C19.727 88.4323 19.141 89.0018 19.8371 88.9584ZM36.7848 99.3952C36.8598 98.4459 35.8637 100.103 36.7848 99.3952ZM24.6617 91.9127C24.4895 91.4112 23.7781 91.8905 24.6617 91.9127ZM20.1067 88.6291C21.7285 88.5295 17.8836 87.9155 20.1067 88.6291ZM14.709 85.1405C14.5063 84.3612 12.9442 83.7424 14.709 85.1405ZM28.877 94.1323C28.7364 94.2061 28.5805 93.7924 28.877 94.1323ZM37.6942 99.5428C37.6672 99.0248 37.2137 99.7385 37.6942 99.5428ZM28.0965 93.326C28.2559 92.6569 26.7125 93.1221 28.0965 93.326ZM21.527 89.1623C22.734 89.0334 19.5922 88.3455 21.527 89.1623ZM32.6399 96.0659C34.5207 95.3217 30.8059 95.7037 32.6399 96.0659ZM26.859 92.1436C29.027 92.4225 24.2797 90.6682 26.3821 91.9854L26.859 92.1436ZM34.3942 96.7772C36.4192 95.5678 35.7512 99.6108 37.8289 97.1182C39.8774 95.6217 36.0594 98.9674 38.5836 97.3854C40.4106 96.1643 43.1082 97.9643 44.8121 98.5514C46.0367 98.4916 47.2285 99.6108 48.486 98.9287C50.9047 98.2772 43.7551 97.9631 45.6289 96.8088C43.4164 97.4522 41.7828 96.0412 40.693 94.6233C38.2098 94.0502 35.3422 92.7799 34.1012 90.5826C33.5949 89.7588 34.8301 90.701 33.6641 89.3522C32.1688 88.0209 31.4223 86.5092 30.418 84.8932C29.2192 84.2545 29.0774 82.3713 28.9567 84.8299C28.966 83.2784 27.5082 82.233 27.1508 82.6655C27.1449 81.1702 28.7129 81.9201 27.6149 80.8139C27.3793 79.2635 26.6012 77.6498 26.368 75.9002C26.0059 75.0553 26.3176 73.2495 25.1281 75.1584C24.6957 77.1764 24.9852 72.6799 25.659 74.1612C26.5414 72.6471 25.3414 72.8264 25.2922 73.035C25.8676 71.7588 25.6567 69.9483 25.141 70.6385C25.4469 69.285 25.625 65.6569 24.6828 66.3014C25.2547 64.8858 25.768 59.8233 23.2848 61.7534C22.2793 61.7686 20.5367 62.1166 19.7153 62.5268C22.2946 63.9494 19.4551 63.0412 18.4028 62.8139C18.2668 64.1323 17.2262 63.5639 15.9254 63.5756C18.002 63.8311 14.9141 65.7002 13.7246 64.9737C12.1766 65.7119 15.0594 67.56 13.7551 68.1307C13.9156 68.9897 11.3844 67.819 11.5824 69.8065C10.0801 69.1725 11.3774 72.1643 12.1285 71.1518C14.6832 71.8444 13.9262 73.4194 13.9906 74.9159C13.5746 75.7889 11.9352 72.8651 13.625 73.001C12.2914 70.8342 12.1508 72.2182 11.041 73.2248C10.7844 73.2963 13.8676 74.6569 11.9328 75.3284C13.6344 75.592 13.6848 77.0803 14.0328 78.0237C15.0547 79.0901 14.8449 76.8471 16.0696 78.1291C15.2938 76.9854 11.9645 74.9112 14.6446 75.5768C14.6305 74.4284 14.1594 73.5014 14.9821 73.5237C15.7965 72.0518 14.1289 77.1565 15.9629 75.285C16.4715 75.0623 16.5969 73.8108 17.5098 75.4034C18.834 76.7077 17.9891 77.6522 16.1188 76.4545C16.4528 77.5924 18.6196 77.9955 18.2117 79.7698C18.643 81.3319 19.2477 80.7565 19.7739 80.6662C20.1864 82.1826 20.4219 81.0682 20.4406 80.3475C22.3297 80.7518 21.8867 81.8686 22.4797 82.6502C23.7828 83.2362 20.6153 78.6659 22.8512 81.2756C25.2031 83.3991 23.7336 84.2838 21.6231 83.9452C22.959 83.8362 23.3891 85.751 25.0614 85.6842C26.586 86.4084 27.6184 89.1928 24.9899 88.0338C24.0793 87.2112 20.8531 86.1987 23.4899 87.7619C25.9215 88.8881 27.8539 89.5608 30.2 90.9764C31.8781 92.1729 32.6035 93.5451 33.2399 93.8205C31.8289 94.4909 28.9883 93.2803 31.0977 92.91C29.7805 92.6721 28.3004 92.0041 29.5602 93.6448C30.6336 94.5401 33.3582 94.4475 33.8481 94.5471C33.4332 95.4577 32.7231 95.5315 33.8633 95.6018C32.5942 96.2827 34.277 96.3893 34.3942 96.7772ZM31.7891 89.4213C31.0133 88.6104 30.8117 87.094 31.6508 88.4123C32.0809 88.5858 33.0278 90.892 31.7891 89.4213ZM40.2723 94.8084C40.7563 94.7768 40.2875 95.1764 40.2723 94.8084ZM30.5656 87.4315C30.8457 88.3772 30.5352 86.2069 30.5656 87.4315ZM29.7231 86.2994C30.9524 86.8315 28.7469 84.4162 29.7231 86.2994ZM19.5043 79.2471C20.0774 79.0936 19.7867 80.2244 19.5043 79.2471ZM27.6371 83.6534C28.0508 84.7608 27.9887 82.3327 27.6371 83.6534ZM21.8914 79.6584C22.7387 80.3428 21.4871 78.9307 21.8914 79.6584ZM26.8215 81.2393C25.8981 79.1698 27.4778 80.1084 27.0266 81.578L26.8215 81.2393ZM18.3184 75.5686C17.9059 74.8901 17.2227 72.8991 17.4442 72.2897C17.641 73.2811 19.5489 76.5518 18.3781 73.6444C17.0856 71.208 19.9239 74.433 20.2156 75.0436C20.3528 75.6483 19.4176 74.8784 20.0504 76.2963C18.8973 74.6827 19.3707 77.1881 18.3184 75.5686ZM15.6922 73.7569C16.2922 74.8385 15.8 72.1784 15.6922 73.7569ZM16.8735 74.1659C17.8285 75.8264 17.4371 72.9741 16.8735 74.1659ZM14.0293 71.9651C13.052 70.9912 12.3442 70.0971 14.0774 71.3627C14.743 71.3873 12.5926 69.3225 14.2367 70.7053C15.9653 71.0217 15.0899 73.5401 14.0293 71.9651ZM15.5235 71.9264C16.0918 71.3627 15.8246 72.4807 15.5235 71.9264ZM16.4434 72.2205C17.4887 72.8991 15.5809 70.6069 16.4434 72.2205ZM14.6164 70.4756C11.7735 67.9432 18.1895 71.7975 15.0805 70.9444L14.6164 70.4756ZM22.7656 75.2088C21.534 74.4717 22.4375 70.0151 22.8594 73.0619C24.0547 72.6752 22.7926 74.6369 23.6844 74.6182C23.5438 75.8569 23.1442 76.2998 22.7656 75.2088ZM25.7797 76.9924C26.0328 77.9088 25.9004 75.6483 25.7797 76.9924ZM25.2559 76.4721C25.3906 75.9014 25.2688 77.1494 25.2559 76.4721ZM15.1731 69.6436C13.3449 67.1241 20.4828 72.1948 16.3438 70.2834C15.9114 70.1698 15.3899 70.1276 15.1731 69.6436ZM20.9785 72.7198C21.3629 73.0713 20.8051 70.5975 20.9785 72.7198ZM25.3836 75.5475C25.7246 74.3393 25.4106 76.3467 25.3836 75.5475ZM15.4543 68.6815C16.5406 68.4494 19.9531 70.5869 16.8196 69.292C16.4715 68.9065 15.7274 69.0811 15.4543 68.6815ZM24.7789 73.3291C24.8949 71.1577 25.4281 72.0342 24.7836 73.6397L24.7789 73.3291ZM16.2617 67.9256C16.7035 67.2764 15.0864 64.9924 16.4949 67.1077C17.1031 67.5905 18.2551 67.9162 17.2379 68.119C18.8387 69.5323 16.8489 68.501 16.2617 67.9256ZM24.3172 72.6518C24.6231 70.1791 24.5879 74.0991 24.3172 72.6518ZM15.336 65.6416C15.6758 65.4975 15.5164 66.0928 15.336 65.6416ZM17.4395 66.892C18.4356 68.1577 17.9797 65.7565 17.4395 66.892ZM23.3645 70.1897C23.4781 70.8237 23.361 69.7526 23.3645 70.1897ZM23.0223 69.4291C23.7875 70.5037 22.2008 67.4006 23.0223 69.4291ZM22.5172 68.0979C22.9871 69.1514 22.3801 67.2612 22.5172 68.0979ZM23.341 66.7619C22.775 65.767 24.0524 62.3791 24.1965 64.4815C23.6 66.1174 24.0254 67.035 24.4391 64.8389C25.2067 63.1092 24.2727 68.2491 23.341 66.7619ZM24.1848 61.7217C24.4309 61.4205 24.2399 62.0862 24.1848 61.7217ZM22.7739 89.5244C22.816 89.7084 22.4387 89.2315 22.7739 89.5244ZM25.6801 90.9928C27.2973 91.4077 27.2891 90.7409 25.8278 90.5428C25.0426 89.8116 22.5617 89.0358 24.7824 90.4514C24.9278 90.8252 25.3918 90.8159 25.6801 90.9928ZM19.9414 87.1807C20.8309 87.8463 23.2953 89.0616 21.2106 87.4338C21.9137 86.6182 19.8653 86.1823 20.5438 85.635C18.8141 84.578 19.1785 84.6729 20.3914 84.7057C18.3137 83.7752 20.6914 83.8467 20.5801 83.3686C19.7785 83.2104 16.5992 81.9553 18.4696 83.4717C16.5688 82.5037 18.016 83.8327 17.4418 83.692C15.4965 83.1635 19.1727 85.1733 17.1336 84.6741C18.2481 85.5565 20.1348 86.9393 17.6035 85.608C17.2707 86.0885 19.4141 86.8151 19.9414 87.1807ZM22.9801 88.9268C26.675 90.1151 21.1672 87.4713 22.9801 88.9268ZM38.5403 98.3545C38.5883 97.6209 38.0364 98.9791 38.5403 98.3545ZM40.1399 99.026C40.993 98.2022 40.175 100.343 41.552 98.8244C41.5672 97.7369 41.511 97.0936 39.9699 98.4143C39.5434 98.6522 39.3547 99.6506 40.1399 99.026ZM14.7524 83.0815C14.491 82.0549 12.916 82.0573 14.7524 83.0815ZM16.4586 84.2018C15.8246 83.1506 14.1969 83.2491 16.4586 84.2018ZM26.1758 90.0612C27.125 90.9049 30.5328 90.6799 27.3278 90.1655C26.8543 89.4635 24.3149 89.6299 26.1758 90.0612ZM39.5305 98.31C40.9907 97.0842 38.116 98.8549 39.5305 98.31ZM42.568 100.396C42.5774 100.002 41.9387 100.567 42.568 100.396ZM42.5727 99.8451C44.1887 98.1319 41.0071 99.9459 42.5727 99.8451ZM10.5512 79.5659C9.17307 77.6006 9.69455 76.717 8.36682 75.1116C8.1137 73.8834 6.08635 71.0979 7.31799 74.0487C8.44534 75.7748 8.77932 78.4467 10.5512 79.5659ZM42.0653 99.3014C45.0407 97.3795 40.8442 98.4623 42.0653 99.3014ZM44.3352 100.19C45.8258 98.91 43.393 99.9237 44.3352 100.19ZM14.2473 80.9088C14.6727 80.276 13.1457 80.8268 14.2473 80.9088ZM43.8617 99.5826C45.3043 98.6545 43.5289 98.7963 43.6004 99.667L43.8617 99.5826ZM24.2903 87.2475C24.241 86.6194 23.5285 87.3002 24.2903 87.2475ZM25.4996 87.9424C25.1141 87.1655 24.909 88.0655 25.4996 87.9424ZM46.175 100.211C48.0231 98.8772 45.0559 99.9565 45.7883 100.464L46.175 100.211ZM45.4672 99.8698C46.9731 98.6077 43.8793 100.428 45.4672 99.8698ZM49.0836 102.277C50.0949 101.599 47.8543 102.058 49.0836 102.277ZM15.1731 80.4518C16.5266 80.7553 20.586 83.7881 18.1918 80.6627C16.9649 80.2994 17.7008 77.3018 16.4492 77.8315C17.2895 79.2354 17.1395 79.8307 15.377 78.9471C13.1621 77.8643 14.1313 79.4827 14.566 79.928C13.9754 80.0616 15.3465 80.4424 15.1731 80.4518ZM9.00315 75.5791C9.24573 74.5748 6.76955 70.0619 7.83362 73.3162C8.21682 73.9983 8.17815 75.2897 9.00315 75.5791ZM20.3293 82.5623C20.2953 82.478 19.6297 81.9787 20.3293 82.5623ZM22.0461 82.9619C22.0461 81.9002 20.1477 82.5295 22.0461 82.9619ZM36.9313 92.344C36.6465 91.6198 35.8098 92.3276 36.9313 92.344ZM37.6461 92.8655C37.5395 92.4588 37.2336 92.9452 37.6461 92.8655ZM43.5453 96.5827C44.1125 96.1655 42.8375 96.5287 43.5453 96.5827ZM12.084 76.3655C13.7071 75.7373 10.3438 75.9178 12.084 76.3655ZM35.6199 91.192C35.6024 90.1432 34.5852 91.4545 35.6199 91.192ZM11.443 74.8713C12.4848 74.5186 10.4774 74.6393 11.443 74.8713ZM14.4676 76.3362C14.4512 75.9916 14.1489 76.4686 14.4676 76.3362ZM51.377 98.9686C52.7176 98.7002 55.7727 99.6506 56.266 98.6135C54.6371 98.5737 50.634 97.4662 50.4453 98.8772L50.8016 98.9334L51.377 98.9686ZM15.4297 76.5799C15.4543 75.5135 14.6 76.5389 15.4297 76.5799ZM7.47502 71.0604C7.11409 69.0319 6.10041 70.7522 7.47502 71.0604ZM9.37112 71.5362C9.39573 70.8846 7.63557 70.9502 9.37112 71.5362ZM10.4563 72.0694C10.2114 72.3893 10.1422 71.8162 10.4563 72.0694ZM17.2778 76.4452C17.6 76.1487 16.5172 76.2272 17.2778 76.4452ZM9.73557 70.8682C9.55041 69.3366 7.53596 70.6397 9.73557 70.8682ZM5.8426 68.3451C5.7887 67.6373 5.46526 68.6112 5.8426 68.3451ZM6.42268 67.908C6.32893 67.0678 5.9258 68.0135 6.42268 67.908ZM9.61838 69.8147C10.9707 69.285 7.15745 68.7166 9.34182 69.7151L9.61838 69.8147ZM52.4024 96.2428C53.2684 95.4494 51.3043 95.9979 52.4024 96.2428ZM57.5715 98.9205C57.9184 97.8987 56.6973 99.0565 57.5715 98.9205ZM9.94651 68.1412C10.0883 67.1475 8.87307 68.3369 9.94651 68.1412ZM5.39729 65.0932C5.15354 63.6928 5.18752 61.2354 7.52307 62.0651C4.40471 62.685 9.68284 65.9428 9.01721 63.3694C10.3285 63.435 11.5813 62.5948 10.8946 63.8674C13.4785 63.5838 15.2692 61.342 17.7664 61.6561C19.7106 61.3983 21.8375 61.2026 23.9317 60.4198C25.6555 60.2967 27.3149 58.4416 26.3703 57.3424C24.0207 57.1432 21.561 57.4385 18.9641 57.9541C16.0871 58.5518 13.4727 59.6873 10.5688 60.176C7.73752 60.5569 11.1371 61.2248 10.325 61.3725C8.84963 61.8858 12.0875 62.2303 10.134 62.7705C8.92815 62.5409 7.6719 62.1272 8.18752 60.8557C5.47698 61.2084 3.09338 62.3323 5.23557 65.0909L5.39729 65.0932ZM11.9317 61.7662C12.5668 59.4248 15.336 63.6928 12.9723 62.0768C12.691 61.8647 12.2258 61.6924 11.9317 61.7662ZM12.0547 60.6295C12.9723 59.9475 12.541 61.0139 12.0547 60.6295ZM13.2184 60.6494C13.3028 59.5725 15.8867 61.2201 13.6449 61.0373L13.2184 60.6494ZM14.8121 60.0096C15.3946 59.3276 14.9809 60.6119 14.8121 60.0096ZM15.2199 59.7366C16.1891 58.5717 20.7055 58.9912 17.3996 59.6217C16.5137 58.9549 15.8352 60.0155 15.2199 59.7366ZM21.1168 58.8272C24.0465 59.9557 20.9703 55.6455 21.1168 58.8272ZM22.7903 58.8155C23.4008 57.2159 25.1645 58.1733 23.0739 58.4944C23.1184 58.6666 23.0117 59.3241 22.7903 58.8155ZM9.28674 67.3186C11.1137 66.1994 7.34729 66.3459 9.28674 67.3186ZM10.6379 67.6924C11.2789 67.0116 9.24456 67.417 10.6379 67.6924ZM6.65588 64.8682C7.70002 64.0643 5.41955 64.5623 6.65588 64.8682ZM60.6219 98.6287C60.6535 97.6971 59.8239 99.0471 60.6219 98.6287ZM55.1387 94.8869C55.2957 93.8159 54.4332 94.9795 55.1387 94.8869ZM62.1301 98.9897C63.5903 98.9967 66.5539 98.5362 63.377 98.5373C62.8778 98.6135 60.4731 98.5994 62.1301 98.9897ZM11.8262 67.0362C13.0086 66.9565 13.6754 65.733 11.5965 65.8022C8.37737 65.4717 14.4371 66.9061 11.1828 66.4959C10.7481 66.7842 11.8016 67.1159 11.8262 67.0362ZM12.8668 67.5623C12.7438 66.8053 12.5012 67.9655 12.8668 67.5623ZM14.102 64.2705C14.6141 63.6354 13.3918 64.1006 14.102 64.2705ZM10.1715 57.7022C12.2809 56.9862 15.166 56.1787 16.161 58.0549C15.1473 56.8362 15.7508 55.635 16.7094 57.4186C18.0629 59.2221 18.7391 56.5983 17.8602 55.9924C18.8633 57.2381 20.0035 57.8287 18.5317 56.0709C20.1324 54.1467 15.3278 56.3241 14.2367 56.3018C13.7106 56.5362 8.81213 57.5498 10.1715 57.7022ZM11.4078 55.335C12.609 54.4268 15.568 55.8752 13.6696 54.4315C13.4832 54.2686 9.51526 55.5272 11.4078 55.335ZM15.7942 55.5166C17.2004 55.5518 15.186 53.6241 16.8629 54.4971C16.5887 53.5983 14.9106 53.4307 14.0903 53.0698C13.625 53.8936 15.0336 55.5272 15.7942 55.5166ZM12.1766 51.5358C12.6641 50.8748 11.3235 51.8709 12.1766 51.5358ZM13.9696 51.9635C16.2383 51.6635 13.3906 50.9873 13.5114 51.9401L13.9696 51.9635ZM10.6227 49.3467C9.02424 47.2596 13.6274 49.6971 12.0031 47.5127C10.6367 46.4252 9.32541 48.7397 10.6227 49.3467ZM31.1199 60.3869C31.8524 59.0885 28.0965 58.6362 30.6278 59.9276C30.8586 60.0037 30.8071 60.4748 31.1199 60.3869Z" fill="#264DE4"/>
<path d="M65.699 51.429C65.4377 52.4638 65.2748 54.197 65.2139 56.6321C65.2139 57.1114 64.9982 57.3505 64.5658 57.3505C64.1346 57.3505 63.8334 57.1419 63.6646 56.7259C63.2018 55.5997 62.7623 54.8157 62.3463 54.3669C61.8541 53.8431 61.1979 53.5267 60.3811 53.4188C59.5022 53.2806 57.3143 53.2103 53.8139 53.2103C53.0135 53.2103 52.4873 53.2958 52.2424 53.4646C52.0877 53.5724 52.0115 53.8044 52.0115 54.1606V64.6349C52.0115 64.9911 52.2342 65.1587 52.6807 65.1446C54.0529 65.1282 56.0416 65.0345 58.6455 64.8657C59.1541 64.8048 59.4975 64.6372 59.6744 64.3688C59.8525 64.1005 60.026 63.402 60.1947 62.2759C60.3025 61.6595 60.6646 61.4204 61.2811 61.5599C61.8061 61.6677 62.0311 61.9067 61.9525 62.2759C61.5201 64.3735 61.3807 67.1017 61.5354 70.4626C61.5518 70.8634 61.2975 71.079 60.7736 71.1095C60.3412 71.1563 60.0717 70.9243 59.9639 70.4157C59.5643 68.4892 58.8189 67.4614 57.7338 67.3278C56.6463 67.1989 54.8779 67.1333 52.4275 67.1333C52.1498 67.1333 52.0127 67.2306 52.0127 67.4321V77.8407C52.0127 78.6095 52.2963 79.1345 52.867 79.4122C53.3158 79.6419 54.2779 79.8505 55.758 80.0356C56.515 80.1106 56.8443 80.4458 56.7529 81.0294C56.6592 81.5392 55.9818 81.7384 54.7174 81.6306C51.0635 81.3388 48.0506 81.3552 45.6775 81.6786C45.0143 81.7688 44.6838 81.5017 44.6838 80.87C44.6838 80.4692 45.0143 80.2384 45.6775 80.1763C47.1881 80.0052 47.9428 78.6798 47.9428 76.1978V56.3989C47.9428 55.3841 47.7623 54.6013 47.4002 54.0552C47.0369 53.5067 46.3631 53.0075 45.3764 52.5622C44.76 52.2845 44.5303 51.906 44.6838 51.4278C44.76 51.1349 44.8842 50.9731 45.0529 50.9427C45.2064 50.8958 45.6166 50.9274 46.2775 51.0353C47.249 51.1899 49.5389 51.2673 53.1447 51.2673C57.401 51.2673 61.076 51.1735 64.1756 50.9896C65.208 50.9274 65.7248 51.0118 65.7248 51.2427C65.7235 51.3056 65.7148 51.3681 65.699 51.429ZM80.7295 80.8208C80.7295 81.436 80.3814 81.7079 79.6877 81.627C77.5631 81.429 74.9252 81.4571 71.7811 81.7196C71.1482 81.7829 70.7604 81.7653 70.6115 81.6751C70.465 81.5825 70.3924 81.3282 70.3924 80.9099C70.3924 80.5419 70.8119 80.2302 71.6522 79.9759C72.4936 79.7216 72.9131 78.961 72.9131 77.6978V56.7716C72.9131 55.5212 72.7314 54.6048 72.3705 54.0188C72.0072 53.4329 71.3721 52.9782 70.4627 52.656C69.9846 52.486 69.7455 52.247 69.7455 51.9376C69.7455 51.4759 70.0924 51.129 70.785 50.8981C71.835 50.5583 72.9213 50.0368 74.0475 49.3255C74.9721 48.77 75.558 48.4958 75.8041 48.4958C76.3748 48.4958 76.6596 48.8872 76.6596 49.6747C76.6596 49.6126 76.6279 50.3837 76.567 51.9856C76.5225 53.5114 76.5061 55.0138 76.5225 56.495L76.6127 77.1423C76.6127 78.0845 76.8447 78.7677 77.3076 79.1907C77.7705 79.6149 78.5639 79.8962 79.6877 80.0345C80.3814 80.1083 80.7295 80.372 80.7295 80.8208ZM101.816 79.2692C101.816 79.595 101.227 80.0837 100.049 80.7376C98.8689 81.3938 97.9244 81.7208 97.2154 81.7208C96.6131 81.7208 96.0834 81.4302 95.6205 80.8419C95.1576 80.2571 94.8342 79.9642 94.6479 79.9642C94.5107 79.9642 93.7795 80.2817 92.4529 80.911C91.1287 81.545 89.7928 81.8626 88.4533 81.8626C87.19 81.8626 86.133 81.4911 85.2846 80.7528C84.3611 79.936 83.8971 78.8239 83.8971 77.4212C83.8971 74.7552 86.9486 72.8438 93.0541 71.6872C94.1018 71.4868 94.6338 71.0626 94.6467 70.4145L94.6959 68.9345C94.7861 66.4067 93.6693 65.1435 91.342 65.1435C90.6799 65.1435 90.0494 65.7341 89.4564 66.9224C88.8646 68.1095 88.0127 68.7493 86.9029 68.8431C85.6396 68.9649 85.0057 68.4329 85.0057 67.247C85.0057 66.5063 85.9479 65.6438 87.8275 64.656C89.7998 63.6247 91.6982 63.1079 93.5158 63.1079C96.6447 63.1079 98.1951 64.5962 98.1635 67.5716L98.0697 77.0966C98.0568 78.0985 98.4811 78.6001 99.3436 78.6001C99.5135 78.6001 99.8369 78.5614 100.314 78.4841C100.59 78.4333 100.868 78.3946 101.147 78.3681C101.594 78.3681 101.816 78.6704 101.816 79.2692ZM94.6971 73.9981C94.7111 73.6126 94.6221 73.3571 94.4287 73.2353C94.2377 73.1122 93.933 73.0888 93.517 73.1649C89.801 73.8282 87.9447 75.0388 87.9447 76.7942C87.9447 78.5673 88.908 79.4544 90.8346 79.4544C91.6057 79.4544 92.4002 79.3091 93.2158 79.0173C94.1721 78.6763 94.649 78.2673 94.649 77.7903L94.6971 73.9981ZM119.067 76.5165C119.067 78.1524 118.438 79.4509 117.183 80.4142C115.928 81.3786 114.212 81.8602 112.036 81.8602C110.59 81.8602 109.138 81.7067 107.69 81.3962C106.442 81.1185 105.716 80.8653 105.517 80.6345C105.393 80.4165 105.332 79.363 105.332 77.4669C105.332 76.6478 105.517 76.2247 105.89 76.1942C106.256 76.1474 106.573 76.3477 106.837 76.7942C107.992 78.8145 109.858 79.8259 112.431 79.8259C114.604 79.8259 115.69 79.0688 115.69 77.5583C115.69 76.8974 115.446 76.3407 114.951 75.8942C114.41 75.3845 113.364 74.7903 111.806 74.113C109.555 73.111 108.052 72.2321 107.297 71.4763C106.48 70.6747 106.07 69.5966 106.07 68.2384C106.07 66.5743 106.71 65.2794 107.991 64.3548C109.179 63.4618 110.765 63.0142 112.752 63.0142C114.001 63.0142 115.143 63.1138 116.175 63.3142C117.286 63.5157 117.864 63.7618 117.911 64.0548C118.033 64.9173 118.288 66.1665 118.671 67.8024C118.719 68.0017 118.501 68.1634 118.024 68.2864C117.515 68.3942 117.177 68.3087 117.008 68.0333C115.788 66.0435 114.25 65.0485 112.383 65.0485C110.271 65.0485 109.214 65.727 109.214 67.0841C109.214 67.8411 109.501 68.4399 110.07 68.8864C110.579 69.272 111.774 69.8731 113.654 70.6911C115.628 71.5384 116.969 72.3024 117.678 72.9798C118.607 73.8587 119.067 75.0388 119.067 76.5165ZM145.89 80.6802C145.89 81.2204 145.527 81.5063 144.803 81.5356C143.722 81.5521 142.313 81.627 140.571 81.7653C139.709 81.9364 139.091 81.8298 138.721 81.4442C136.286 78.8228 134.22 76.0794 132.524 73.2118C132.387 72.9657 132.208 72.8427 131.993 72.8427C131.729 72.8427 131.276 73.0747 130.63 73.5364C129.904 73.936 129.542 74.5067 129.542 75.245C129.542 75.7712 129.557 76.5259 129.587 77.5138C129.618 78.4993 129.864 79.1474 130.328 79.4544C130.651 79.6724 131.399 79.8411 132.57 79.9642C133.294 80.0567 133.657 80.3274 133.657 80.7728C133.657 81.129 133.599 81.3481 133.485 81.4325C133.37 81.5181 133.064 81.5368 132.571 81.4899C131.03 81.3528 128.426 81.4302 124.754 81.7208C123.831 81.797 123.329 81.6833 123.254 81.3739C123.218 81.2221 123.201 81.066 123.206 80.9099C123.206 80.4341 123.676 80.0708 124.617 79.8259C125.467 79.6079 125.889 78.6153 125.889 76.8423V56.6321C125.889 55.3688 125.767 54.4899 125.521 53.9978C125.182 53.3638 124.471 52.8704 123.393 52.5153C122.884 52.3466 122.631 52.1087 122.631 51.7993C122.631 51.3517 122.994 51.0048 123.717 50.7599C124.882 50.3701 125.993 49.8338 127.022 49.1638C127.872 48.6083 128.396 48.3306 128.596 48.3306C129.228 48.3306 129.545 48.7313 129.545 49.5341C129.545 49.4251 129.538 50.1892 129.521 51.8216C129.505 52.9478 129.497 54.4583 129.497 56.3556L129.544 70.8282C129.544 71.2313 129.653 71.4306 129.866 71.4306C130.096 71.4306 130.452 71.2313 130.93 70.8282C132.535 69.558 134.107 68.2474 135.646 66.8977C136.017 66.5122 136.201 66.2052 136.201 65.9731C136.201 65.5571 135.578 65.2642 134.33 65.0942C133.791 65.031 133.533 64.731 133.565 64.1907C133.613 63.6528 133.882 63.4208 134.376 63.4981C135.485 63.6528 137.105 63.7372 139.231 63.7524C140.712 63.7665 142.184 63.7759 143.649 63.7759C144.126 63.7923 144.365 64.0759 144.365 64.6313C144.365 65.1552 143.987 65.4399 143.233 65.4868C142.072 65.5245 140.93 65.7996 139.88 66.2954C138.414 66.9587 136.849 68.1224 135.184 69.7864C135.128 69.8247 135.081 69.8762 135.049 69.9365C135.017 69.9967 135 70.0639 135 70.1321C135 70.3489 135.262 70.8645 135.787 71.6825C137.714 74.6122 139.533 76.8235 141.243 78.3188C142.338 79.2587 143.363 79.7286 144.319 79.7286C145.027 79.7286 145.467 79.779 145.636 79.8798C145.805 79.9829 145.89 80.2489 145.89 80.6802Z" fill="#264DE4"/>
</svg>
