<svg width="120" height="120" viewBox="0 0 120 120" fill="none" xmlns="http://www.w3.org/2000/svg">
<g clip-path="url(#clip0_169_242)">
<path d="M38.6976 92.7651C38.6976 92.7651 32.511 95.4269 43.1006 96.3276C55.9298 97.4104 62.4862 97.2554 76.6242 95.2754C76.6242 95.2754 80.3414 96.9998 85.5318 98.4935C53.8392 108.543 13.8042 97.9112 38.6976 92.7651ZM34.8248 79.6504C34.8248 79.6504 27.8859 83.4509 38.4834 84.2617C52.1878 85.3077 63.0103 85.3934 81.7378 82.7253C81.7378 82.7253 84.3281 84.6682 88.401 85.7309C50.0821 94.0213 7.40198 86.3846 34.8248 79.6504Z" fill="#5382A1"/>
<path d="M67.4733 57.4038C75.2826 64.0559 65.4216 70.042 65.4216 70.042C65.4216 70.042 85.2501 62.4685 76.1437 52.9843C67.6387 44.1404 61.1161 39.7455 96.4256 24.5942C96.4256 24.5942 41.0016 34.8362 67.4733 57.4038Z" fill="#E76F00"/>
<path d="M109.389 102.466C109.389 102.466 113.968 105.256 104.347 107.416C86.0535 111.516 28.207 112.754 12.1373 107.579C6.36088 105.72 17.1937 103.14 20.601 102.598C24.1546 102.028 26.1857 102.134 26.1857 102.134C19.7615 98.7858 -15.3376 108.709 8.35728 111.55C72.9759 119.304 126.15 108.059 109.389 102.466ZM41.6718 66.0625C41.6718 66.0625 12.2479 71.2336 31.2524 73.111C39.2765 73.9059 55.2726 73.7262 70.1727 72.8023C82.3499 72.0427 94.5773 70.4266 94.5773 70.4266C94.5773 70.4266 90.2835 71.7871 87.1771 73.3565C57.2971 79.171 -0.425686 76.4661 16.192 70.5185C30.2456 65.4923 41.6718 66.0625 41.6718 66.0625ZM94.4559 87.8921C124.831 76.214 110.787 64.9915 100.984 66.5037C98.5813 66.8734 97.5103 67.1938 97.5103 67.1938C97.5103 67.1938 98.4023 66.1603 100.106 65.7129C119.498 60.6684 134.412 80.5905 93.8456 88.4807C93.8456 88.481 94.3157 88.1703 94.4559 87.8921Z" fill="#5382A1"/>
<path d="M76.1438 0.128765C76.1438 0.128765 92.9658 12.5796 60.1889 31.7245C33.9056 47.0824 54.1955 55.8389 60.1781 65.8437C44.8359 55.6021 33.5766 46.5861 41.1305 38.1951C52.2169 25.8771 82.9308 19.9055 76.1438 0.128765Z" fill="#E76F00"/>
<path d="M44.6571 119.537C73.8129 120.918 118.585 118.771 119.645 108.563C119.645 108.563 117.607 112.433 95.5493 115.506C70.6643 118.971 39.9725 118.566 21.7686 116.346C21.769 116.346 25.4946 118.628 44.6571 119.537Z" fill="#5382A1"/>
</g>
<defs>
<clipPath id="clip0_169_242">
<rect width="120" height="120" fill="white"/>
</clipPath>
</defs>
</svg>
