<svg width="100" height="100" viewBox="0 0 100 100" fill="none" xmlns="http://www.w3.org/2000/svg">
<g clip-path="url(#clip0_169_248)">
<path d="M76.5625 0H23.4375C10.4933 0 0 10.4933 0 23.4375V76.5625C0 89.5067 10.4933 100 23.4375 100H76.5625C89.5067 100 100 89.5067 100 76.5625V23.4375C100 10.4933 89.5067 0 76.5625 0Z" fill="#F0DB4F"/>
<path d="M26.2934 83.567L33.9457 78.9357C35.4223 81.5533 36.7652 83.7682 39.9867 83.7682C43.0746 83.7682 45.0215 82.5604 45.0215 77.8619V45.9096H54.4191V77.9947C54.4191 87.7279 48.7137 92.1584 40.3895 92.1584C32.8719 92.1584 28.5082 88.265 26.293 83.5662M59.5234 82.56L67.175 78.1299C69.1894 81.4193 71.8074 83.8357 76.4387 83.8357C80.3328 83.8357 82.8156 81.8889 82.8156 79.2037C82.8156 75.9818 80.2648 74.8404 75.9687 72.9615L73.6199 71.9541C66.8398 69.0682 62.3422 65.4432 62.3422 57.7908C62.3422 50.7424 67.7125 45.3721 76.1035 45.3721C82.0777 45.3721 86.3738 47.4533 89.4613 52.8904L82.1445 57.5893C80.5332 54.7029 78.7887 53.5619 76.1035 53.5619C73.3512 53.5619 71.6059 55.3072 71.6059 57.5893C71.6059 60.4084 73.3512 61.5498 77.3785 63.2955L79.7277 64.3021C87.7156 67.726 92.2133 71.2158 92.2133 79.0693C92.2133 87.5279 85.568 92.1592 76.6402 92.1592C67.9141 92.1592 62.2754 87.9975 59.5234 82.56Z" fill="#323330"/>
</g>
<defs>
<clipPath id="clip0_169_248">
<rect width="100" height="100" fill="white"/>
</clipPath>
</defs>
</svg>
