<svg width="100" height="100" viewBox="0 0 100 100" fill="none" xmlns="http://www.w3.org/2000/svg">
<g clip-path="url(#clip0_169_252)">
<path d="M49.5766 0.0283203C24.2516 0.0283203 25.8328 11.0538 25.8328 11.0538L25.8609 22.4766H50.0281V25.906H16.2621C16.2621 25.906 0.0566406 24.0609 0.0566406 49.7138C0.0566406 75.3675 14.2012 74.4577 14.2012 74.4577H22.6426V62.5534C22.6426 62.5534 22.1875 48.3534 36.5613 48.3534H60.5309C60.5309 48.3534 73.9977 48.5719 73.9977 35.2871V13.3217C73.9977 13.3217 76.043 0.0283203 49.5766 0.0283203ZM36.2508 7.70989C36.8219 7.70937 37.3874 7.82192 37.9152 8.04108C38.4429 8.26025 38.9224 8.58173 39.3262 8.98713C39.73 9.39253 40.0502 9.8739 40.2685 10.4037C40.4868 10.9335 40.5989 11.5013 40.5984 12.0746C40.5989 12.6479 40.4868 13.2157 40.2685 13.7455C40.0502 14.2753 39.73 14.7567 39.3262 15.1621C38.9224 15.5675 38.4429 15.8889 37.9152 16.1081C37.3874 16.3273 36.8219 16.4398 36.2508 16.4393C35.6797 16.4398 35.1141 16.3273 34.5864 16.1081C34.0587 15.8889 33.5792 15.5675 33.1754 15.1621C32.7716 14.7567 32.4513 14.2753 32.233 13.7455C32.0147 13.2157 31.9026 12.6479 31.9031 12.0746C31.9026 11.5013 32.0147 10.9335 32.233 10.4037C32.4513 9.8739 32.7716 9.39253 33.1754 8.98713C33.5792 8.58173 34.0587 8.26025 34.5864 8.04108C35.1141 7.82192 35.6797 7.70937 36.2508 7.70989Z" fill="url(#paint0_linear_169_252)"/>
<path d="M50.296 99.657C75.621 99.657 74.0398 88.6315 74.0398 88.6315L74.0116 77.2092H49.8441V73.7798H83.6101C83.6101 73.7798 99.8155 75.6249 99.8155 49.9712C99.8155 24.3178 85.671 25.2276 85.671 25.2276H77.2296V37.1315C77.2296 37.1315 77.6847 51.3315 63.3109 51.3315H39.3413C39.3413 51.3315 25.8745 51.1131 25.8745 64.3982V86.3641C25.8745 86.3641 23.8296 99.657 50.2956 99.657M63.6214 91.9762C63.0503 91.9768 62.4847 91.8642 61.957 91.6451C61.4293 91.4259 60.9498 91.1044 60.546 90.699C60.1422 90.2936 59.822 89.8122 59.6037 89.2825C59.3853 88.7527 59.2732 88.1849 59.2738 87.6115C59.2732 87.0382 59.3853 86.4703 59.6035 85.9405C59.8218 85.4107 60.142 84.9293 60.5459 84.5238C60.9497 84.1184 61.4292 83.7969 61.9569 83.5777C62.4847 83.3585 63.0503 83.2459 63.6214 83.2464C64.1925 83.2459 64.7581 83.3585 65.2858 83.5776C65.8135 83.7968 66.293 84.1183 66.6968 84.5237C67.1006 84.9291 67.4209 85.4105 67.6392 85.9402C67.8575 86.47 67.9696 87.0378 67.9691 87.6111C67.9696 88.1845 67.8575 88.7523 67.6392 89.2821C67.4209 89.8118 67.1006 90.2932 66.6968 90.6986C66.293 91.104 65.8135 91.4255 65.2858 91.6447C64.7581 91.8638 64.1925 91.9768 63.6214 91.9762Z" fill="url(#paint1_linear_169_252)"/>
</g>
<defs>
<linearGradient id="paint0_linear_169_252" x1="958.733" y1="896.132" x2="5921.62" y2="5790.32" gradientUnits="userSpaceOnUse">
<stop stop-color="#387EB8"/>
<stop offset="1" stop-color="#366994"/>
</linearGradient>
<linearGradient id="paint1_linear_169_252" x1="1440.88" y1="1556.99" x2="6769.49" y2="6574.62" gradientUnits="userSpaceOnUse">
<stop stop-color="#FFE052"/>
<stop offset="1" stop-color="#FFC331"/>
</linearGradient>
<clipPath id="clip0_169_252">
<rect width="100" height="100" fill="white"/>
</clipPath>
</defs>
</svg>
