<svg width="100" height="100" viewBox="0 0 100 100" fill="none" xmlns="http://www.w3.org/2000/svg">
<g clip-path="url(#clip0_169_255)">
<path d="M15.2126 14.0153C34.9704 -5.12497 66.5618 -4.61052 85.7021 15.25C87.863 12.3688 89.7153 9.17894 91.0532 5.88597C97.3306 25.0262 101.138 41.0793 99.697 53.5305C98.9767 64.0266 94.8607 74.1114 88.0689 82.1379C70.3696 103.13 38.8806 105.806 17.888 88.1067L17.4864 87.7492L17.465 87.7352C17.3989 87.689 17.334 87.6412 17.2704 87.5918C17.079 87.443 16.9052 87.2809 16.7485 87.1074L16.6923 87.0434L16.036 86.4602C15.3954 85.9114 14.7552 85.3625 14.1872 84.7414L13.9778 84.5047C-5.16278 64.7469 -4.54481 33.1555 15.2126 14.0153ZM22.6212 81.0063C20.7689 79.5657 18.0935 79.7711 16.6525 81.6235C15.386 83.2524 15.3923 85.5176 16.6716 87.0199L16.6923 87.0434L17.4864 87.7492L17.5642 87.8024C19.3626 88.9852 21.7829 88.7406 23.163 87.0688L23.2388 86.9746C24.6794 85.1223 24.3708 82.4469 22.6216 81.0059M90.5392 11.0309C85.3935 21.836 72.6329 30.0684 61.6224 32.641C51.229 35.1106 42.1732 33.0528 32.6032 36.7571C10.7876 45.0926 11.1993 71.0242 23.136 76.8899L23.8564 77.3016C23.8564 77.3016 32.479 75.5871 41.0056 73.3231L41.736 73.1278C45.1415 72.2098 48.4919 71.2098 51.229 70.2012C65.4298 64.9531 81.0716 51.9871 86.2165 36.9629C83.5411 52.6043 70.0607 67.7313 56.5798 74.6262C49.3767 78.3305 43.82 79.1535 31.986 83.2699C30.5454 83.7844 29.4134 84.2992 29.4134 84.2992L29.8462 84.2407L30.1337 84.2035L30.42 84.1676C33.0333 83.8434 35.3818 83.6817 35.3818 83.6817C52.1552 82.8582 78.4989 88.4153 90.7446 72.0535C103.299 55.3828 96.3017 28.4219 90.5392 11.0309Z" fill="#6DB33F"/>
<path d="M22.6212 81.0062C24.3708 82.4468 24.6794 85.1222 23.2384 86.9745C21.7982 88.8269 19.1224 89.0327 17.2701 87.5917C15.4181 86.1511 15.2123 83.4757 16.6529 81.6233C18.0935 79.771 20.7685 79.5655 22.6212 81.0062ZM90.5388 11.0308C96.3013 28.4218 103.299 55.3827 90.7447 72.0534C78.4986 88.4151 52.1552 82.8581 35.3818 83.6815C35.3818 83.6815 33.0333 83.8437 30.4201 84.1675L30.1337 84.2034C29.8947 84.2339 29.6541 84.2659 29.4134 84.2991C29.4134 84.2991 30.5455 83.7843 31.9861 83.2698C43.8201 79.1538 49.3767 78.3304 56.5798 74.6261C70.0607 67.7315 83.5412 52.6042 86.2165 36.9628C81.0716 51.987 65.4298 64.953 51.2291 70.2011C41.4533 73.8026 23.8564 77.3015 23.8564 77.3015L23.1361 76.8897C11.1994 71.0241 10.7876 45.0925 32.6033 36.7569C42.1736 33.0526 51.2291 35.1104 61.6228 32.6409C72.6333 30.0683 85.3935 21.8362 90.5388 11.0308Z" fill="white"/>
</g>
<defs>
<clipPath id="clip0_169_255">
<rect width="100" height="100" fill="white"/>
</clipPath>
</defs>
</svg>
