<svg width="120" height="120" viewBox="0 0 120 120" fill="none" xmlns="http://www.w3.org/2000/svg">
<g clip-path="url(#clip0_169_231)">
<mask id="mask0_169_231" style="mask-type:luminance" maskUnits="userSpaceOnUse" x="0" y="0" width="120" height="120">
<path d="M0 0H120V120H0V0Z" fill="white"/>
</mask>
<g mask="url(#mask0_169_231)">
<path fill-rule="evenodd" clip-rule="evenodd" d="M101.25 35.625C101.25 34.1332 100.657 32.7024 99.6023 31.6475C98.5474 30.5926 97.1167 30 95.6248 30C94.133 30 92.7022 30.5926 91.6474 31.6475C90.5925 32.7024 89.9998 34.1332 89.9998 35.625V84.375C89.9998 87.48 92.5198 90 95.6248 90H114.375C115.867 90 117.297 89.4074 118.352 88.3525C119.407 87.2976 120 85.8668 120 84.375C120 82.8832 119.407 81.4524 118.352 80.3975C117.297 79.3426 115.867 78.75 114.375 78.75H101.25V35.625ZM82.4998 60C82.4998 69.9 80.5723 77.355 77.1823 82.35L84.6073 89.775C85.1443 90.2941 85.5725 90.915 85.867 91.6014C86.1615 92.2879 86.3163 93.026 86.3224 93.7729C86.3286 94.5198 86.1859 95.2604 85.9028 95.9516C85.6196 96.6427 85.2016 97.2706 84.6732 97.7985C84.1448 98.3264 83.5166 98.7438 82.8252 99.0263C82.1338 99.3088 81.393 99.4507 80.6461 99.4439C79.8992 99.4371 79.1612 99.2815 78.4751 98.9864C77.7889 98.6913 77.1685 98.2625 76.6498 97.725L68.1598 89.235C66.4252 89.7542 64.6229 90.0121 62.8123 90C50.9998 90 43.1248 80.0025 43.1248 60C43.1248 39.9975 50.9998 30 62.8123 30C74.6248 30 82.4998 39.9975 82.4998 60ZM67.8223 76.125C69.4873 73.71 71.2498 68.775 71.2498 60.0075C71.2498 51.2475 69.4873 46.3125 67.8223 43.89C66.5098 41.985 65.0773 41.265 62.8123 41.265C60.5473 41.265 59.1148 41.985 57.8023 43.89C56.1373 46.3125 54.3748 51.2475 54.3748 60.015C54.3748 68.7675 56.1373 73.71 57.8023 76.125C59.1148 78.03 60.5473 78.7575 62.8123 78.7575C65.0773 78.7575 66.5098 78.03 67.8223 76.125ZM19.2148 30.015C14.0473 30.015 9.57732 31.8825 6.44982 35.3625C3.39732 38.775 2.07732 43.2 2.07732 47.64C2.07732 53.13 4.52232 57.24 7.76982 60.075C10.8448 62.76 14.5798 64.2825 17.5573 65.205C20.5423 66.12 22.6873 66.8325 24.2323 67.995C25.3348 68.8425 26.2573 69.99 26.2573 72.6825C26.2573 74.8575 25.4398 76.2 24.3598 77.1C22.8862 78.228 21.0699 78.8158 19.2148 78.765C17.6998 78.765 15.9298 78.0675 14.2798 76.5675C12.7403 75.2072 11.6366 73.4226 11.1073 71.4375C10.9604 70.7004 10.6673 70.0003 10.2453 69.3784C9.82324 68.7565 9.28086 68.2255 8.65017 67.8167C8.01949 67.4079 7.31327 67.1297 6.57325 66.9984C5.83323 66.8672 5.07441 66.8855 4.34161 67.0524C3.6088 67.2193 2.91688 67.5314 2.3067 67.9702C1.69653 68.409 1.18047 68.9656 0.789023 69.6072C0.397572 70.2488 0.138663 70.9623 0.0275892 71.7057C-0.083485 72.449 -0.0444723 73.207 0.142323 73.935C1.09482 78.1125 3.53982 82.0275 6.72732 84.9075C9.92232 87.8025 14.2723 90.015 19.2148 90.015C23.5498 90.015 28.0423 88.665 31.5673 85.74C35.2048 82.7025 37.4998 78.195 37.4998 72.69C37.4998 66.3675 34.8598 61.9425 31.0198 59.04C27.7648 56.565 23.8048 55.35 21.2248 54.5625L20.8723 54.45C18.5473 53.7375 16.5298 52.7925 15.1723 51.6C14.578 51.1289 14.1017 50.5257 13.7814 49.8382C13.4611 49.1508 13.3056 48.3981 13.3273 47.64C13.3273 45.36 14.0023 43.8 14.8273 42.8775C15.5698 42.0525 16.8523 41.265 19.2148 41.265C21.6298 41.265 22.9498 42.0075 23.8048 42.81C24.7798 43.7325 25.5523 45.1575 26.0548 47.01C26.2298 47.7398 26.5491 48.4272 26.9939 49.0317C27.4387 49.6363 27.9999 50.1457 28.6446 50.5299C29.2893 50.9142 30.0043 51.1656 30.7476 51.2693C31.4909 51.373 32.2475 51.3269 32.9727 51.1337C33.6979 50.9405 34.3771 50.6041 34.9703 50.1444C35.5636 49.6847 36.0588 49.1109 36.4269 48.4568C36.7949 47.8028 37.0284 47.0817 37.1135 46.336C37.1986 45.5903 37.1336 44.8352 36.9223 44.115C36.0748 40.965 34.4848 37.425 31.5298 34.6425C28.4623 31.74 24.3223 30.015 19.2148 30.015Z" fill="#099CDA"/>
</g>
</g>
<defs>
<clipPath id="clip0_169_231">
<rect width="120" height="120" fill="white"/>
</clipPath>
</defs>
</svg>
